<svg width="30" height="30" viewBox="0 0 40 40" fill="none" xmlns="http://www.w3.org/2000/svg">
    <circle cx="20" cy="20" r="20"/>
    <g clipPath="url(#clip0_107_51)">
    <path d="M28.4498 10H10.5502C10.1391 10 9.74477 10.1633 9.45405 10.454C9.16333 10.7448 9 11.1391 9 11.5502V29.4498C9 29.8609 9.16333 30.2552 9.45405 30.546C9.74477 30.8367 10.1391 31 10.5502 31H28.4498C28.8609 31 29.2552 30.8367 29.546 30.546C29.8367 30.2552 30 29.8609 30 29.4498V11.5502C30 11.1391 29.8367 10.7448 29.546 10.454C29.2552 10.1633 28.8609 10 28.4498 10ZM15.2592 27.8894H12.1019V17.8604H15.2592V27.8894ZM13.6783 16.4706C13.3202 16.4686 12.9707 16.3605 12.6739 16.1601C12.3771 15.9596 12.1464 15.6757 12.0108 15.3442C11.8752 15.0127 11.8408 14.6485 11.912 14.2975C11.9832 13.9465 12.1568 13.6245 12.4109 13.3721C12.6649 13.1196 12.9881 12.9481 13.3395 12.8792C13.691 12.8102 14.055 12.8469 14.3856 12.9846C14.7162 13.1223 14.9986 13.3549 15.1972 13.653C15.3957 13.951 15.5015 14.3012 15.5013 14.6594C15.5046 14.8992 15.4597 15.1372 15.3691 15.3592C15.2786 15.5812 15.1442 15.7828 14.9741 15.9518C14.804 16.1208 14.6016 16.2539 14.379 16.343C14.1564 16.4321 13.9181 16.4755 13.6783 16.4706ZM26.8967 27.8981H23.7408V22.4192C23.7408 20.8033 23.054 20.3046 22.1673 20.3046C21.231 20.3046 20.3123 21.0104 20.3123 22.46V27.8981H17.155V17.8677H20.1913V19.2575H20.2321C20.5369 18.6406 21.6044 17.5863 23.2333 17.5863C24.995 17.5863 26.8981 18.6319 26.8981 21.6944L26.8967 27.8981Z" fill="white"/>
    </g>
    <defs>
    <clipPath id="clip0_107_51">
    <rect width="21" height="21" fill="white" transform="translate(9 10)"/>
    </clipPath>
    </defs>
</svg>