<svg width="30" height="30" viewBox="0 0 40 40" fill="none" xmlns="http://www.w3.org/2000/svg">
    <circle cx="20" cy="20" r="20"/>
    <path d="M15.6041 29.0319C23.5286 29.0319 27.863 22.4664 27.863 16.7729C27.863 16.5864 27.863 16.4008 27.8504 16.216C28.6937 15.6061 29.4215 14.8509 30 13.9858C29.2137 14.3344 28.3795 14.5629 27.5254 14.6637C28.4248 14.1253 29.098 13.2783 29.4196 12.2806C28.5738 12.7825 27.6486 13.1362 26.6837 13.3264C26.0341 12.6356 25.1749 12.1782 24.2392 12.025C23.3034 11.8717 22.3432 12.0311 21.5072 12.4785C20.6712 12.926 20.0059 13.6365 19.6144 14.5001C19.2229 15.3637 19.1268 16.3322 19.3412 17.2559C17.6283 17.17 15.9525 16.7248 14.4228 15.9493C12.893 15.1738 11.5434 14.0852 10.4616 12.7543C9.91064 13.7028 9.74189 14.8257 9.98971 15.8942C10.2375 16.9627 10.8833 17.8967 11.7955 18.5058C11.1098 18.4857 10.4391 18.3007 9.84 17.9665V18.0211C9.84027 19.0159 10.1846 19.9799 10.8146 20.7497C11.4447 21.5195 12.3216 22.0477 13.2966 22.2447C12.6623 22.4177 11.9968 22.443 11.3512 22.3186C11.6266 23.1746 12.1626 23.9232 12.8843 24.4596C13.606 24.9961 14.4773 25.2936 15.3764 25.3107C14.4831 26.0128 13.4602 26.532 12.366 26.8384C11.2719 27.1448 10.1281 27.2325 9 27.0965C10.9704 28.3609 13.2629 29.0316 15.6041 29.0285" fill="white"/>
</svg>